<?xml version="1.0" encoding="UTF-8" standalone="no"?>
<!-- Created with Inkscape (http://www.inkscape.org/) -->

<svg
   width="40.652164mm"
   height="45.517818mm"
   viewBox="0 0 40.652164 45.517818"
   version="1.1"
   id="svg5"
   inkscape:version="1.1.1 (c3084ef, 2021-09-22)"
   sodipodi:docname="org-dlai.svg"
   xmlns:inkscape="http://www.inkscape.org/namespaces/inkscape"
   xmlns:sodipodi="http://sodipodi.sourceforge.net/DTD/sodipodi-0.dtd"
   xmlns="http://www.w3.org/2000/svg"
   xmlns:svg="http://www.w3.org/2000/svg"
   aria-label="DeepLearning.AI">
  <sodipodi:namedview
     id="namedview7"
     pagecolor="#ffffff"
     bordercolor="#999999"
     borderopacity="1"
     inkscape:pageshadow="0"
     inkscape:pageopacity="0"
     inkscape:pagecheckerboard="0"
     inkscape:document-units="mm"
     showgrid="false"
     inkscape:zoom="0.83609089"
     inkscape:cx="38.273351"
     inkscape:cy="168.04393"
     inkscape:window-width="1792"
     inkscape:window-height="1067"
     inkscape:window-x="0"
     inkscape:window-y="25"
     inkscape:window-maximized="1"
     inkscape:current-layer="layer1"
     fit-margin-top="0"
     fit-margin-left="0"
     fit-margin-right="0"
     fit-margin-bottom="0" />
  <defs
     id="defs2" />
  <g
     inkscape:label="Layer 1"
     inkscape:groupmode="layer"
     id="layer1"
     transform="translate(-25.355791,-54.830192)">
    <g
       id="g37"
       transform="translate(-10.097628,-16.719023)">
      <path
         style="fill:#d0d0d0;fill-opacity:1;stroke-width:0.264583"
         d="m 64.028419,114.90875 c 0,-0.50932 0.05445,-0.71768 0.121002,-0.46302 0.06655,0.25466 0.06655,0.67138 0,0.92604 -0.06655,0.25466 -0.121002,0.0463 -0.121002,-0.46302 z m 2.055283,-0.10399 c 0,-0.0572 0.184777,-0.17489 0.410617,-0.26155 0.235458,-0.0904 0.341662,-0.046 0.248968,0.10398 -0.155379,0.25141 -0.659585,0.37186 -0.659585,0.15757 z m -3.175,-23.543823 c 0,-0.05494 0.208359,-0.263302 0.463021,-0.463021 0.419645,-0.329107 0.429003,-0.319749 0.0999,0.0999 -0.345644,0.440729 -0.562917,0.580887 -0.562917,0.363126 z M 47.959744,78.131665 c 0.263389,-0.291042 0.53842,-0.529167 0.611181,-0.529167 0.07276,0 -0.08321,0.238125 -0.346598,0.529167 -0.263389,0.291042 -0.53842,0.529167 -0.611181,0.529167 -0.07276,0 0.08321,-0.238125 0.346598,-0.529167 z m -7.14375,-0.529167 c 0.263389,-0.291041 0.53842,-0.529166 0.611181,-0.529166 0.07276,0 -0.08321,0.238125 -0.346598,0.529166 -0.263389,0.291042 -0.53842,0.529167 -0.611181,0.529167 -0.07276,0 0.08321,-0.238125 0.346598,-0.529167 z m 29.608195,-0.06614 -0.504029,-0.595313 0.595313,0.504028 c 0.327422,0.277215 0.595312,0.545106 0.595312,0.595313 0,0.211733 -0.212934,0.05542 -0.686596,-0.504028 z M 54.640473,75.04602 c 0.181901,-0.0734 0.479557,-0.0734 0.661458,0 0.181901,0.0734 0.03307,0.133452 -0.330729,0.133452 -0.363802,0 -0.51263,-0.06005 -0.330729,-0.133452 z m 1.322917,0 c 0.181901,-0.0734 0.479557,-0.0734 0.661458,0 0.181901,0.0734 0.03307,0.133452 -0.330729,0.133452 -0.363802,0 -0.512631,-0.06005 -0.330729,-0.133452 z"
         id="path53" />
      <path
         style="fill:#b9b9b9;fill-opacity:1;stroke-width:0.264583"
         d="m 67.036998,116.80493 c -0.07495,-0.12127 0.03185,-0.22049 0.237329,-0.22049 0.205478,0 0.312277,0.0992 0.237329,0.22049 -0.07495,0.12127 -0.181745,0.22049 -0.237329,0.22049 -0.05558,0 -0.162383,-0.0992 -0.237329,-0.22049 z M 41.03724,114.115 c 0,-1.09141 0.0467,-1.53789 0.103786,-0.99219 0.05708,0.5457 0.05708,1.43867 0,1.98438 -0.05708,0.5457 -0.103786,0.0992 -0.103786,-0.99219 z m 20.091441,0.52917 c 0,-0.65485 0.0516,-0.92274 0.114662,-0.59532 0.06307,0.32742 0.06307,0.86321 0,1.19063 -0.06306,0.32742 -0.114662,0.0595 -0.114662,-0.59531 z m 1.322916,0 c 0,-0.65485 0.0516,-0.92274 0.114663,-0.59532 0.06307,0.32742 0.06307,0.86321 0,1.19063 -0.06306,0.32742 -0.114663,0.0595 -0.114663,-0.59531 z m 2.096186,0.39687 c 0.0054,-0.43656 0.06469,-0.58313 0.131773,-0.32569 0.06708,0.25743 0.06267,0.61461 -0.0098,0.79375 -0.07248,0.17913 -0.127362,-0.0315 -0.12197,-0.46806 z m 7.428814,-0.39687 c 0,-0.65485 0.0516,-0.92274 0.114663,-0.59532 0.06307,0.32742 0.06307,0.86321 0,1.19063 -0.06306,0.32742 -0.114663,0.0595 -0.114663,-0.59531 z M 45.412453,94.866561 c -0.329107,-0.419644 -0.319749,-0.429002 0.0999,-0.0999 0.440729,0.345644 0.580887,0.562916 0.363126,0.562916 -0.05494,0 -0.263302,-0.20836 -0.463021,-0.463021 z m 20.142082,0.363126 c 0,-0.05494 0.20836,-0.263302 0.463021,-0.463021 0.419645,-0.329107 0.429004,-0.319749 0.0999,0.0999 -0.345643,0.440729 -0.562917,0.580887 -0.562917,0.363126 z M 57.087869,75.221248 c -0.238467,-0.154109 -0.271101,-0.258097 -0.08176,-0.260531 0.173313,-0.0022 0.388699,0.11501 0.478636,0.260531 0.203016,0.328487 0.111422,0.328487 -0.396876,0 z m -2.695443,-3.620324 c 0.190996,-0.07643 0.419199,-0.06703 0.507118,0.02089 0.08792,0.08792 -0.06835,0.150453 -0.347266,0.138965 -0.308224,-0.0127 -0.370919,-0.07539 -0.159852,-0.159853 z m 2.38125,0 c 0.190996,-0.07643 0.419199,-0.06703 0.507118,0.02089 0.08792,0.08792 -0.06835,0.150453 -0.347266,0.138965 -0.308224,-0.0127 -0.370919,-0.07539 -0.159852,-0.159853 z"
         id="path51" />
      <path
         style="fill:#a3a3a3;fill-opacity:1;stroke-width:0.264583"
         d="m 48.516164,115.7466 c -0.07495,-0.12127 0.03185,-0.22049 0.23733,-0.22049 0.205478,0 0.312277,0.0992 0.237329,0.22049 -0.07495,0.12126 -0.181745,0.22048 -0.237329,0.22048 -0.05558,0 -0.162383,-0.0992 -0.23733,-0.22048 z m 6.455038,-0.0285 c 0,-0.13693 0.117699,-0.32171 0.261553,-0.41061 0.149982,-0.0927 0.194338,0.0135 0.103984,0.24896 -0.175893,0.45837 -0.365537,0.54224 -0.365537,0.16165 z m 15.345833,0 c 0,-0.13693 0.1177,-0.32171 0.261554,-0.41061 0.149982,-0.0927 0.194337,0.0135 0.103984,0.24896 -0.175892,0.45837 -0.365538,0.54224 -0.365538,0.16165 z m -18.887787,-0.3286 c 0.07641,-0.12364 0.249771,-0.1563 0.385236,-0.0726 0.346176,0.21395 0.307197,0.29738 -0.138935,0.29738 -0.21188,0 -0.322715,-0.10116 -0.246301,-0.2248 z m -8.822281,-0.66411 c 0.257431,-0.0671 0.614618,-0.0627 0.79375,0.01 0.179131,0.0725 -0.03149,0.12736 -0.468057,0.12197 -0.436562,-0.005 -0.583124,-0.0647 -0.325693,-0.13177 z m 2.645833,0 c 0.257431,-0.0671 0.614618,-0.0627 0.79375,0.01 0.179131,0.0725 -0.03149,0.12736 -0.468056,0.12197 -0.436563,-0.005 -0.583125,-0.0647 -0.325694,-0.13177 z m 6.609548,10e-4 c 0.254661,-0.0665 0.67138,-0.0665 0.926041,0 0.254662,0.0666 0.0463,0.121 -0.46302,0.121 -0.509323,0 -0.717683,-0.0544 -0.463021,-0.121 z m 11.840104,-0.87604 c -0.238466,-0.1541 -0.2711,-0.25809 -0.08176,-0.26053 0.173313,-0.002 0.3887,0.11501 0.478637,0.26053 0.203015,0.32849 0.111421,0.32849 -0.396875,0 z M 55.450759,94.090508 c 0.190996,-0.07643 0.4192,-0.06703 0.507118,0.02089 0.08792,0.08792 -0.06835,0.150453 -0.347265,0.138964 -0.308225,-0.01269 -0.37092,-0.07539 -0.159853,-0.159852 z m -19.99734,-3.523426 c 0,-0.509323 0.05445,-0.717683 0.121001,-0.463021 0.06655,0.254661 0.06655,0.67138 0,0.926041 -0.06655,0.254662 -0.121001,0.0463 -0.121001,-0.46302 z m 40.48125,0 c 0,-0.509323 0.05445,-0.717683 0.121002,-0.463021 0.06655,0.254661 0.06655,0.67138 0,0.926041 -0.06655,0.254662 -0.121002,0.0463 -0.121002,-0.46302 z m -35.46397,-3.042709 c 0.0054,-0.436562 0.06469,-0.583124 0.131774,-0.325693 0.06708,0.257431 0.06267,0.614618 -0.0098,0.79375 -0.07248,0.179131 -0.127363,-0.03149 -0.121971,-0.468057 z m 30.427084,0 c 0.0054,-0.436562 0.06469,-0.583124 0.131773,-0.325693 0.06708,0.257431 0.06267,0.614618 -0.0098,0.79375 -0.07246,0.179131 -0.12735,-0.03149 -0.121957,-0.468057 z M 55.301931,73.715947 c 0.254662,-0.06655 0.67138,-0.06655 0.926042,0 0.254661,0.06655 0.0463,0.121001 -0.463021,0.121001 -0.509323,0 -0.717682,-0.05445 -0.463021,-0.121001 z m 0,-2.116666 c 0.254662,-0.06655 0.67138,-0.06655 0.926042,0 0.254661,0.06655 0.0463,0.121 -0.463021,0.121 -0.509323,0 -0.717682,-0.05445 -0.463021,-0.121 z"
         id="path49" />
      <path
         style="fill:#8c8c8c;fill-opacity:1;stroke-width:0.264583"
         d="m 47.298285,116.51186 c 0,-0.28245 0.101863,-0.5765 0.226363,-0.65345 0.124499,-0.0769 0.17015,0.15416 0.101447,0.51355 -0.149229,0.78065 -0.32781,0.85686 -0.32781,0.1399 z m 9.586384,-1.33853 c 0,-0.50932 0.05445,-0.71768 0.121001,-0.46302 0.06655,0.25466 0.06655,0.67138 0,0.92604 -0.06655,0.25466 -0.121001,0.0463 -0.121001,-0.46302 z m 1.857422,-0.13229 c 0.0029,-0.58208 0.05712,-0.78905 0.120407,-0.45994 0.06329,0.32912 0.06088,0.80537 -0.0053,1.05834 -0.06622,0.25296 -0.118004,-0.0163 -0.115067,-0.5984 z m 1.317578,0.13229 c 0,-0.50932 0.05445,-0.71768 0.121002,-0.46302 0.06655,0.25466 0.06655,0.67138 0,0.92604 -0.06655,0.25466 -0.121002,0.0463 -0.121002,-0.46302 z m -9.766281,-1.32292 c 0,-0.94588 0.04802,-1.33283 0.106713,-0.85989 0.05869,0.47294 0.05869,1.24685 0,1.71979 -0.05869,0.47294 -0.106713,0.086 -0.106713,-0.8599 z m -2.953326,0.79376 c 0,-0.36381 0.06005,-0.51264 0.133452,-0.33073 0.0734,0.1819 0.0734,0.47955 0,0.66145 -0.0734,0.18191 -0.133452,0.0331 -0.133452,-0.33072 z m -5.17753,-0.22637 c -0.07695,-0.1245 0.154154,-0.17015 0.513552,-0.10145 0.359398,0.0687 0.653451,0.17057 0.653451,0.22637 0,0.20472 -1.031515,0.0943 -1.167003,-0.12492 z m 2.645833,0 c -0.07694,-0.1245 0.154154,-0.17015 0.513552,-0.10145 0.359399,0.0687 0.653452,0.17057 0.653452,0.22637 0,0.20472 -1.031516,0.0943 -1.167004,-0.12492 z m 7.059018,0.043 c 0.257431,-0.0671 0.614619,-0.0627 0.79375,0.01 0.179132,0.0725 -0.03149,0.12736 -0.468056,0.12197 -0.436562,-0.005 -0.583125,-0.0647 -0.325694,-0.13178 z m 3.253122,-0.53284 c -0.143586,-0.37708 -0.113195,-0.40747 0.148112,-0.14811 0.180821,0.17948 0.262115,0.39297 0.180653,0.47443 -0.08146,0.0815 -0.229406,-0.0654 -0.328765,-0.32632 z m 15.345832,0 c -0.143584,-0.37708 -0.113194,-0.40747 0.148114,-0.14811 0.180821,0.17948 0.262115,0.39297 0.180652,0.47443 -0.08146,0.0815 -0.229407,-0.0654 -0.328766,-0.32632 z m -27.279973,-0.0952 c -0.09592,-0.1552 -0.117655,-0.33893 -0.0483,-0.40828 0.06935,-0.0694 0.196603,0.0576 0.282774,0.28218 0.178907,0.46623 0.02642,0.54823 -0.234473,0.1261 z m 2.645834,0 c -0.09592,-0.1552 -0.117656,-0.33893 -0.0483,-0.40828 0.06935,-0.0694 0.196602,0.0576 0.282773,0.28218 0.178907,0.46623 0.02642,0.54823 -0.234472,0.1261 z m 5.848723,-0.06 c 0.09936,-0.26094 0.247304,-0.40778 0.328766,-0.32632 0.08146,0.0815 1.68e-4,0.29495 -0.180653,0.47443 -0.261307,0.25936 -0.291698,0.22897 -0.148113,-0.14811 z M 40.914536,103.59781 c -0.329107,-0.41964 -0.319749,-0.429 0.0999,-0.0999 0.254662,0.19973 0.463021,0.40808 0.463021,0.46303 0,0.21776 -0.217272,0.0776 -0.562916,-0.36313 z m 29.137916,0.36313 c 0,-0.0549 0.208359,-0.2633 0.463021,-0.46303 0.419645,-0.3291 0.429003,-0.31974 0.0999,0.0999 -0.345644,0.44073 -0.562917,0.58089 -0.562917,0.36313 z M 56.244509,94.090508 c 0.190996,-0.07643 0.4192,-0.06703 0.507118,0.02089 0.08792,0.08792 -0.06835,0.150453 -0.347265,0.138964 -0.308225,-0.01269 -0.37092,-0.07539 -0.159853,-0.159852 z m -8.309904,-3.060406 -0.504028,-0.595312 0.595313,0.504028 c 0.559446,0.473662 0.715761,0.686597 0.504028,0.686597 -0.05021,0 -0.318098,-0.267891 -0.595313,-0.595313 z m -2.732098,-5.909027 c 0.01269,-0.308225 0.07539,-0.37092 0.159852,-0.159853 0.07643,0.190996 0.06703,0.4192 -0.02089,0.507118 -0.08792,0.08792 -0.150453,-0.06835 -0.138964,-0.347265 z m 18.077932,-7.055556 -0.504029,-0.595312 0.595313,0.504028 c 0.559445,0.473662 0.715761,0.686597 0.504028,0.686597 -0.05021,0 -0.318098,-0.267891 -0.595312,-0.595313 z"
         id="path47" />
      <path
         style="fill:#767676;fill-opacity:1;stroke-width:0.264583"
         d="m 47.060076,115.32767 c -0.0145,-1.00652 0.02017,-1.78042 0.07706,-1.71979 0.221719,0.23632 0.319438,2.26161 0.139362,2.88837 -0.126279,0.43951 -0.198897,0.0474 -0.216421,-1.16858 z m 9.498626,-0.50712 c 0,-0.67909 0.109325,-1.23472 0.242944,-1.23472 0.133619,0 0.461041,-0.0678 0.727604,-0.15056 0.406478,-0.12628 0.398395,-0.0943 -0.05011,0.19843 -0.328717,0.21453 -0.567829,0.70582 -0.62057,1.27505 -0.127316,1.37411 -0.29987,1.32336 -0.29987,-0.0882 z m 1.89656,0.022 c -0.03676,-1.03882 0.03582,-1.25606 0.418544,-1.25272 0.306107,0.003 0.357619,0.0711 0.152003,0.20188 -0.171061,0.1088 -0.359407,0.67252 -0.418544,1.25272 -0.1065,1.04484 -0.10795,1.04292 -0.152003,-0.20188 z m 1.757391,0.19844 c -0.05946,-0.50932 -0.01296,-0.92604 0.103344,-0.92604 0.1163,0 0.211455,0.41672 0.211455,0.92604 0,0.50932 -0.04651,0.92604 -0.103344,0.92604 -0.05684,0 -0.151995,-0.41672 -0.211455,-0.92604 z M 49.98015,113.91655 c 0.03734,-1.85071 0.148314,-1.64495 0.285409,0.52917 0.04359,0.69122 -0.01091,1.25677 -0.121096,1.25677 -0.110189,0 -0.18413,-0.80367 -0.164313,-1.78594 z m 15.667968,1.07499 c 0.263697,-0.26369 1.229887,-0.29775 1.069155,-0.0377 -0.0746,0.12071 -0.386577,0.21946 -0.693282,0.21946 -0.306708,0 -0.475851,-0.0818 -0.375873,-0.18178 z m 0.37432,-1.45029 c 0.153749,-0.15374 0.435721,-0.22748 0.626602,-0.16385 0.19816,0.0661 0.07822,0.18598 -0.279546,0.27954 -0.440094,0.11509 -0.543396,0.0806 -0.347056,-0.11569 z M 44.495022,97.380103 43.990994,96.78479 l 0.595312,0.504028 c 0.559447,0.473663 0.715762,0.686597 0.504028,0.686597 -0.05021,0 -0.318097,-0.267891 -0.595312,-0.595312 z m 22.250138,0.06614 c 0.26339,-0.291041 0.538422,-0.529166 0.611183,-0.529166 0.07276,0 -0.08321,0.238125 -0.346599,0.529166 -0.26339,0.291042 -0.538422,0.529167 -0.611183,0.529167 -0.07276,0 0.08321,-0.238125 0.346599,-0.529167 z m -22.225,-19.84375 c 0.263389,-0.291041 0.538421,-0.529166 0.611181,-0.529166 0.07276,0 -0.08321,0.238125 -0.346597,0.529166 -0.263389,0.291042 -0.538421,0.529167 -0.611181,0.529167 -0.07276,0 0.08321,-0.238125 0.346597,-0.529167 z m 22.199862,-0.06614 -0.504028,-0.595313 0.595312,0.504028 c 0.327422,0.277215 0.595313,0.545106 0.595313,0.595313 0,0.211733 -0.212934,0.05542 -0.686597,-0.504028 z"
         id="path45" />
      <path
         style="fill:#606060;fill-opacity:1;stroke-width:0.264583"
         d="m 65.411364,116.74323 c -0.09592,-0.1552 -0.117655,-0.33893 -0.0483,-0.40829 0.06935,-0.0694 0.196602,0.0576 0.282774,0.28219 0.178906,0.46622 0.02643,0.54823 -0.234474,0.1261 z m -25.835605,-0.95689 c 0.190996,-0.0764 0.4192,-0.067 0.507118,0.0209 0.08792,0.0879 -0.06835,0.15045 -0.347265,0.13896 -0.308225,-0.0127 -0.37092,-0.0754 -0.159853,-0.15985 z m 3.175,0 c 0.190996,-0.0764 0.4192,-0.067 0.507118,0.0209 0.08792,0.0879 -0.06835,0.15045 -0.347265,0.13896 -0.308225,-0.0127 -0.37092,-0.0754 -0.159853,-0.15985 z m 2.645834,0 c 0.190996,-0.0764 0.419199,-0.067 0.507118,0.0209 0.08792,0.0879 -0.06835,0.15045 -0.347266,0.13896 -0.308224,-0.0127 -0.370919,-0.0754 -0.159852,-0.15985 z m 2.645833,0 c 0.190996,-0.0764 0.419199,-0.067 0.507118,0.0209 0.08792,0.0879 -0.06835,0.15045 -0.347266,0.13896 -0.308224,-0.0127 -0.370919,-0.0754 -0.159852,-0.15985 z m 3.952214,0.006 c 0.181901,-0.0734 0.479557,-0.0734 0.661458,0 0.181901,0.0734 0.03307,0.13345 -0.330729,0.13345 -0.363802,0 -0.512631,-0.0601 -0.330729,-0.13345 z m 2.397786,-0.006 c 0.190996,-0.0764 0.419199,-0.067 0.507118,0.0209 0.08792,0.0879 -0.06835,0.15045 -0.347266,0.13896 -0.308224,-0.0127 -0.370919,-0.0754 -0.159852,-0.15985 z m 11.182998,-0.23818 c 0.0127,-0.30823 0.07539,-0.37092 0.159851,-0.15985 0.07643,0.19099 0.06703,0.41919 -0.02088,0.50711 -0.08792,0.0879 -0.150452,-0.0683 -0.138964,-0.34726 z m 0.706715,0.24369 c 0.181902,-0.0734 0.479558,-0.0734 0.661459,0 0.181901,0.0734 0.03307,0.13346 -0.330729,0.13346 -0.363802,0 -0.512631,-0.0601 -0.33073,-0.13346 z m 3.45612,-0.005 c 0.190995,-0.0764 0.419198,-0.067 0.507119,0.0209 0.08792,0.0879 -0.06835,0.15045 -0.347265,0.13896 -0.308227,-0.0127 -0.37092,-0.0754 -0.159854,-0.15985 z m -27.835624,-0.50237 c -0.216487,-0.56415 -0.202247,-0.90444 0.03784,-0.90421 0.10914,1e-4 0.215608,0.29776 0.236594,0.66146 0.04392,0.76119 -0.04523,0.84005 -0.274432,0.24275 z m 2.645833,0 c -0.216487,-0.56415 -0.202247,-0.90444 0.03784,-0.90421 0.109141,1e-4 0.215608,0.29776 0.236594,0.66146 0.04392,0.76119 -0.04523,0.84005 -0.274432,0.24275 z m 22.233303,-1.30127 c -0.08376,-0.21828 -0.03697,-0.39688 0.103984,-0.39688 0.140954,0 0.25628,0.1786 0.25628,0.39688 0,0.21828 -0.04679,0.39687 -0.103984,0.39687 -0.05719,0 -0.172516,-0.17859 -0.25628,-0.39687 z m -12.141298,-4.54086 c 0.181901,-0.0734 0.479557,-0.0734 0.661458,0 0.181901,0.0734 0.03307,0.13346 -0.330729,0.13346 -0.363802,0 -0.51263,-0.0601 -0.330729,-0.13346 z m 1.5875,0 c 0.181901,-0.0734 0.479557,-0.0734 0.661458,0 0.181901,0.0734 0.03307,0.13346 -0.330729,0.13346 -0.363802,0 -0.51263,-0.0601 -0.330729,-0.13346 z m -1.30638,-10.588841 c 0.190996,-0.07643 0.419199,-0.06703 0.507118,0.02088 0.08792,0.08792 -0.06835,0.150453 -0.347266,0.138965 -0.308224,-0.0127 -0.370919,-0.07539 -0.159852,-0.159851 z m 1.322916,0 c 0.190996,-0.07643 0.4192,-0.06703 0.507118,0.02088 0.08792,0.08792 -0.06835,0.150453 -0.347265,0.138965 -0.308225,-0.0127 -0.37092,-0.07539 -0.159853,-0.159851 z m 7.061068,-7.756761 c 0.26339,-0.291041 0.538422,-0.529166 0.611182,-0.529166 0.07276,0 -0.08321,0.238125 -0.346599,0.529166 -0.26339,0.291042 -0.538421,0.529167 -0.611182,0.529167 -0.07276,0 0.08321,-0.238125 0.346599,-0.529167 z m -8.003646,0.0822 c 0.254662,-0.06655 0.67138,-0.06655 0.926042,0 0.254661,0.06655 0.0463,0.121001 -0.463021,0.121001 -0.509323,0 -0.717682,-0.05445 -0.463021,-0.121001 z m -13.274424,-4.20579 c 0.01269,-0.308224 0.07539,-0.370919 0.159852,-0.159852 0.07643,0.190996 0.06703,0.419199 -0.02089,0.507118 -0.08792,0.08792 -0.150453,-0.06835 -0.138964,-0.347266 z m 27.252084,0 c 0.0127,-0.308224 0.07539,-0.370919 0.159851,-0.159852 0.07643,0.190996 0.06703,0.419199 -0.02088,0.507118 -0.08792,0.08792 -0.150453,-0.06835 -0.138965,-0.347266 z M 40.948285,77.73479 c 0.341775,-0.363802 0.680939,-0.661458 0.7537,-0.661458 0.07276,0 -0.147342,0.297656 -0.489116,0.661458 -0.341775,0.363802 -0.680939,0.661458 -0.7537,0.661458 -0.07276,0 0.147342,-0.297656 0.489116,-0.661458 z m 6.614584,0.561564 c 0,-0.05494 0.208359,-0.263302 0.463021,-0.463021 0.419643,-0.329108 0.429002,-0.319749 0.09989,0.09989 -0.345643,0.44073 -0.562915,0.580888 -0.562915,0.363127 z m 22.73414,-0.62771 -0.641432,-0.727604 0.727604,0.641433 c 0.400182,0.352788 0.727604,0.68021 0.727604,0.727604 0,0.207506 -0.214259,0.03862 -0.813776,-0.641433 z M 55.301931,75.303447 c 0.254662,-0.06655 0.67138,-0.06655 0.926042,0 0.254661,0.06655 0.0463,0.121001 -0.463021,0.121001 -0.509323,0 -0.717682,-0.05445 -0.463021,-0.121001 z"
         id="path43" />
      <path
         style="fill:#494949;fill-opacity:1;stroke-width:0.264583"
         d="m 40.768388,114.115 c 0,-0.94589 0.04802,-1.33284 0.106713,-0.8599 0.05869,0.47295 0.05869,1.24685 0,1.71979 -0.05869,0.47295 -0.106713,0.086 -0.106713,-0.85989 z m 13.165369,1.16858 c 0.01269,-0.30823 0.07539,-0.37092 0.159852,-0.15986 0.07643,0.191 0.06703,0.4192 -0.02089,0.50712 -0.08792,0.0879 -0.150453,-0.0684 -0.138964,-0.34726 z m 1.627996,-0.37483 c 0,-0.50932 0.05445,-0.71768 0.121,-0.46302 0.06655,0.25466 0.06655,0.67138 0,0.92604 -0.06655,0.25466 -0.121,0.0463 -0.121,-0.46302 z m 5.831511,-0.26458 c 0,-0.65485 0.0516,-0.92274 0.114662,-0.59532 0.06307,0.32742 0.06307,0.86321 0,1.19063 -0.06306,0.32742 -0.114662,0.0595 -0.114662,-0.59531 z m 1.322917,0 c 0,-0.65485 0.0516,-0.92274 0.114662,-0.59532 0.06307,0.32742 0.06307,0.86321 0,1.19063 -0.06306,0.32742 -0.114662,0.0595 -0.114662,-0.59531 z m 1.502513,0.073 c -0.07262,-0.61468 -0.03122,-1.01677 0.09201,-0.89354 0.123224,0.12322 0.182642,0.62613 0.132035,1.11758 -0.08974,0.87154 -0.09526,0.86603 -0.224045,-0.22404 z m 5.060897,0.56637 c 0.0127,-0.30823 0.07539,-0.37092 0.159851,-0.15986 0.07643,0.191 0.06703,0.4192 -0.02088,0.50712 -0.08792,0.0879 -0.150453,-0.0684 -0.138965,-0.34726 z m 1.627994,-0.37483 c 0,-0.50932 0.05445,-0.71768 0.121002,-0.46302 0.06655,0.25466 0.06655,0.67138 0,0.92604 -0.06655,0.25466 -0.121002,0.0463 -0.121002,-0.46302 z m 1.333596,-0.26458 c 0,-0.65485 0.0516,-0.92274 0.114662,-0.59532 0.06307,0.32742 0.06307,0.86321 0,1.19063 -0.06306,0.32742 -0.114662,0.0595 -0.114662,-0.59531 z m -23.386838,-0.20676 c -0.08717,-0.52578 -0.04834,-0.77261 0.09845,-0.62582 0.133309,0.13331 0.198079,0.524 0.143933,0.8682 -0.08331,0.52962 -0.120576,0.49235 -0.24238,-0.24238 z m 2.43358,0.0524 c 0.0127,-0.30823 0.07539,-0.37092 0.159853,-0.15986 0.07643,0.191 0.06703,0.4192 -0.02089,0.50712 -0.08792,0.0879 -0.150453,-0.0684 -0.138964,-0.34726 z m 1.25242,-5.31807 c 0.190996,-0.0764 0.419199,-0.067 0.507118,0.0209 0.08792,0.0879 -0.06835,0.15046 -0.347266,0.13897 -0.308224,-0.0127 -0.370919,-0.0754 -0.159852,-0.15985 z m 6.085416,0 c 0.190995,-0.0764 0.419198,-0.067 0.507119,0.0209 0.08792,0.0879 -0.06835,0.15046 -0.347265,0.13897 -0.308227,-0.0127 -0.37092,-0.0754 -0.159854,-0.15985 z m -17.677474,-5.77239 c -0.64268,-0.65484 -1.108978,-1.19062 -1.036218,-1.19062 0.07276,0 0.658121,0.53578 1.300802,1.19062 0.64268,0.65485 1.108978,1.19063 1.036218,1.19063 -0.07276,0 -0.658121,-0.53578 -1.300802,-1.19063 z m 29.357693,0.0661 c 1.096423,-1.16819 1.333974,-1.37824 1.333974,-1.17957 0,0.0425 -0.565547,0.60801 -1.256771,1.25677 l -1.256771,1.17957 z M 54.772764,102.0159 c 0.545704,-0.0571 1.438672,-0.0571 1.984375,0 0.545704,0.0571 0.09922,0.10378 -0.992187,0.10378 -1.091406,0 -1.537891,-0.0467 -0.992188,-0.10378 z m -1.703255,-3.427585 c 0.190996,-0.07643 0.4192,-0.06703 0.507118,0.02088 0.08792,0.08792 -0.06835,0.150453 -0.347265,0.138965 -0.308225,-0.0127 -0.37092,-0.07539 -0.159853,-0.159851 z m 5.027084,0 c 0.190996,-0.07643 0.419198,-0.06703 0.507119,0.02088 0.08792,0.08792 -0.06835,0.150453 -0.347267,0.138965 -0.308224,-0.0127 -0.370919,-0.07539 -0.159852,-0.159851 z m -12.543238,-3.854156 -0.504028,-0.595312 0.595313,0.504028 c 0.559446,0.473662 0.715761,0.686597 0.504028,0.686597 -0.05021,0 -0.318098,-0.267891 -0.595313,-0.595313 z m 20.133472,0.06615 c 0.26339,-0.291042 0.538422,-0.529167 0.611182,-0.529167 0.07276,0 -0.08321,0.238125 -0.346599,0.529167 -0.26339,0.291042 -0.538421,0.529167 -0.611182,0.529167 -0.07276,0 0.08321,-0.238125 0.346599,-0.529167 z M 53.598676,94.090508 c 0.190996,-0.07643 0.419199,-0.06703 0.507118,0.02089 0.08792,0.08792 -0.06835,0.150453 -0.347266,0.138964 -0.308224,-0.01269 -0.370919,-0.07539 -0.159852,-0.159852 z M 35.698395,92.154582 c 0,-0.363802 0.06005,-0.512631 0.133452,-0.33073 0.0734,0.181902 0.0734,0.479558 0,0.661459 -0.0734,0.181901 -0.133452,0.03307 -0.133452,-0.330729 z m 39.952082,0 c 0,-0.363802 0.06006,-0.512631 0.133453,-0.33073 0.0734,0.181902 0.0734,0.479558 0,0.661459 -0.0734,0.181901 -0.133453,0.03307 -0.133453,-0.330729 z M 47.793703,91.162394 c -0.329107,-0.419644 -0.319749,-0.429002 0.09989,-0.0999 0.254661,0.19972 0.463021,0.408079 0.463021,0.463021 0,0.217761 -0.217272,0.0776 -0.562916,-0.363126 z M 35.698395,88.979582 c 0,-0.363802 0.06005,-0.512631 0.133452,-0.330729 0.0734,0.181901 0.0734,0.479557 0,0.661458 -0.0734,0.181901 -0.133452,0.03307 -0.133452,-0.330729 z m 14.225698,-0.198438 -0.641433,-0.727604 0.727605,0.641433 c 0.680055,0.599516 0.848938,0.813775 0.641433,0.813775 -0.04739,0 -0.374816,-0.327422 -0.727605,-0.727604 z m 11.397109,0.06615 c 0.341776,-0.363802 0.68094,-0.661458 0.7537,-0.661458 0.07276,0 -0.147341,0.297656 -0.489117,0.661458 -0.341775,0.363802 -0.680939,0.661458 -0.7537,0.661458 -0.07276,0 0.147341,-0.297656 0.489117,-0.661458 z m 14.329275,0.132292 c 0,-0.363802 0.06006,-0.512631 0.133453,-0.330729 0.0734,0.181901 0.0734,0.479557 0,0.661458 -0.0734,0.181901 -0.133453,0.03307 -0.133453,-0.330729 z m -9.491102,-4.365625 c 0.0021,-0.727605 0.05337,-0.993858 0.114187,-0.591675 0.06082,0.402183 0.05919,0.997496 -0.0036,1.322917 -0.06281,0.325421 -0.112572,-0.0036 -0.110588,-0.731242 z m -6.623534,-4.233334 c 0.0029,-0.582083 0.05712,-0.789054 0.120407,-0.459936 0.06329,0.329119 0.06088,0.805369 -0.0053,1.058334 -0.06622,0.252965 -0.117999,-0.01631 -0.115062,-0.598398 z M 49.944119,77.73479 c 0.341774,-0.363802 0.680939,-0.661458 0.753699,-0.661458 0.07276,0 -0.147342,0.297656 -0.489116,0.661458 -0.341774,0.363802 -0.680939,0.661458 -0.753699,0.661458 -0.07276,0 0.147341,-0.297656 0.489116,-0.661458 z m 11.357057,-0.06615 -0.641432,-0.727604 0.727604,0.641433 c 0.400182,0.352788 0.727604,0.68021 0.727604,0.727604 0,0.207506 -0.21426,0.03862 -0.813776,-0.641433 z M 48.356619,77.5026 c 0,-0.05494 0.208359,-0.263302 0.46302,-0.463021 0.419644,-0.329108 0.429003,-0.319749 0.09989,0.09989 -0.345643,0.44073 -0.562915,0.580888 -0.562915,0.363127 z m 6.680729,-1.405407 c 0.254661,-0.06655 0.67138,-0.06655 0.926042,0 0.254661,0.06655 0.0463,0.121001 -0.463021,0.121001 -0.509323,0 -0.717683,-0.05445 -0.463021,-0.121001 z m 0,-1.330041 c 0.400182,-0.06062 1.055026,-0.06062 1.455208,0 0.400182,0.06062 0.07276,0.110223 -0.727604,0.110223 -0.800365,0 -1.127786,-0.0496 -0.727604,-0.110223 z M 54.127843,73.98217 c 0.190996,-0.07643 0.419199,-0.06703 0.507118,0.02089 0.08792,0.08792 -0.06835,0.150453 -0.347266,0.138965 -0.308224,-0.01269 -0.370919,-0.07539 -0.159852,-0.159853 z m 2.910416,0 c 0.190996,-0.07643 0.4192,-0.06703 0.507118,0.02089 0.08792,0.08792 -0.06835,0.150453 -0.347265,0.138965 -0.308225,-0.01269 -0.37092,-0.07539 -0.159853,-0.159853 z m -2.265495,-1.070333 c 0.545704,-0.05708 1.438672,-0.05708 1.984375,0 0.545704,0.05708 0.09922,0.103786 -0.992187,0.103786 -1.091406,0 -1.537891,-0.0467 -0.992188,-0.103786 z M 53.582139,71.87102 c 0.181902,-0.0734 0.479558,-0.0734 0.661459,0 0.181901,0.0734 0.03307,0.133452 -0.330729,0.133452 -0.363802,0 -0.512631,-0.06005 -0.33073,-0.133452 z m 3.704167,0 c 0.181901,-0.0734 0.479557,-0.0734 0.661459,0 0.181901,0.0734 0.03307,0.133452 -0.33073,0.133452 -0.363802,0 -0.51263,-0.06005 -0.330729,-0.133452 z"
         id="path41" />
      <path
         style="fill:#333333;fill-opacity:1;stroke-width:0.264583"
         d="m 51.531619,108.9682 c -4.219562,-0.90347 -7.082345,-2.46166 -10.220694,-5.56305 -2.092143,-2.06749 -2.575722,-2.72349 -3.612506,-4.900568 -1.493198,-3.135464 -1.872803,-4.749623 -1.866677,-7.9375 0.01373,-7.143233 4.01009,-13.257925 10.805085,-16.532466 3.294884,-1.587821 5.427793,-2.071963 9.128125,-2.071963 3.70033,0 5.833242,0.484142 9.128125,2.071963 4.088961,1.97049 7.147348,4.933535 9.008078,8.727257 1.274025,2.597533 1.791319,4.844365 1.797008,7.805209 0.0061,3.187877 -0.373481,4.802036 -1.866678,7.9375 -1.034746,2.172788 -1.525828,2.839988 -3.622468,4.921528 -2.032059,2.01743 -2.831513,2.60724 -4.929029,3.63647 -1.376966,0.67566 -3.217953,1.41838 -4.091078,1.6505 -2.188903,0.58192 -7.47844,0.72165 -9.657291,0.25512 z m 7.540625,-7.15749 c 3.021269,-0.63432 5.522219,-2.024262 7.805208,-4.337858 3.008344,-3.048675 4.227052,-5.916939 4.227052,-9.948479 0,-4.03154 -1.218708,-6.899804 -4.227052,-9.948478 -6.218854,-6.302226 -16.006146,-6.302226 -22.225,0 -3.008343,3.048674 -4.227053,5.916938 -4.227053,9.948478 0,4.03154 1.21871,6.899804 4.227053,9.948479 3.870124,3.922008 9.020649,5.471418 14.419792,4.337858 z M 52.267595,98.358283 C 44.312708,96.429755 40.069418,88.25086 43.462214,81.386005 c 4.018778,-8.131445 15.706237,-9.883846 22.260379,-3.33769 4.898816,4.89285 4.636463,12.640241 -0.58398,17.245186 -3.352136,2.956914 -8.378808,4.153841 -12.871018,3.064782 z m 6.989492,-4.633905 c 2.9234,-0.984822 5.010539,-2.826443 6.263243,-5.526473 0.551021,-1.187651 0.681297,-1.87067 0.683591,-3.583948 0.0024,-1.815948 -0.112536,-2.361001 -0.809202,-3.836459 -3.670395,-7.773479 -15.119983,-8.059145 -19.160661,-0.478056 -1.033752,1.939518 -1.350974,4.684505 -0.777899,6.731328 0.81357,2.905786 3.536237,5.660674 6.661289,6.740121 1.956739,0.675892 5.055133,0.655706 7.139639,-0.04651 z m -6.27026,-3.095772 c -1.793814,-0.589827 -4.106895,-2.8817 -4.715961,-4.672719 -1.024196,-3.011752 -0.354121,-5.840993 1.918229,-8.099293 3.23534,-3.215334 7.916374,-3.215334 11.151713,0 3.224381,3.204443 3.224381,7.664449 0,10.868892 -2.274742,2.260677 -5.223548,2.932444 -8.353981,1.90312 z m 4.566481,-6.410095 c 0.951859,-0.580357 1.808194,-1.819548 2.064827,-2.987992 0.273317,-1.244408 -0.121277,-2.53746 -1.107462,-3.629048 -1.607527,-1.779339 -3.763749,-2.010876 -5.618065,-0.603271 -2.564122,1.946414 -1.992965,6.199485 1.01136,7.531015 0.852994,0.378049 2.790207,0.213116 3.64934,-0.310704 z"
         id="path39" />
    </g>
    <text
       xml:space="preserve"
       style="font-style:normal;font-variant:normal;font-weight:bold;font-stretch:normal;font-size:4.47959px;line-height:1.25;font-family:'Merriweather Sans';-inkscape-font-specification:'Merriweather Sans, Bold';font-variant-ligatures:normal;font-variant-caps:normal;font-variant-numeric:normal;font-variant-east-asian:normal;fill:#000000;fill-opacity:1;stroke:none;stroke-width:0.279975"
       x="29.555531"
       y="96.19648"
       id="text501"
       transform="scale(0.96987776,1.0310578)"><tspan
         sodipodi:role="line"
         id="tspan499"
         style="font-style:normal;font-variant:normal;font-weight:bold;font-stretch:normal;font-size:4.47959px;font-family:'Merriweather Sans';-inkscape-font-specification:'Merriweather Sans, Bold';font-variant-ligatures:normal;font-variant-caps:normal;font-variant-numeric:normal;font-variant-east-asian:normal;stroke-width:0.279975"
         x="29.555531"
         y="96.19648">deeplearning.ai</tspan></text>
  </g>
</svg>
